Coordinates
version=1
nRows=14
nColumns=24
inDegrees=yes

Units are S.I. units (second, meters, Newtons, ...)
Angles are in degrees.

endheader
time	pelvis_tilt	pelvis_list	pelvis_rotation	pelvis_tx	pelvis_ty	pelvis_tz	hip_flexion_r	hip_adduction_r	hip_rotation_r	knee_angle_r	ankle_angle_r	subtalar_angle_r	mtp_angle_r	hip_flexion_l	hip_adduction_l	hip_rotation_l	knee_angle_l	ankle_angle_l	subtalar_angle_l	mtp_angle_l	lumbar_extension	lumbar_bending	lumbar_rotation
      1.68800000	      8.00118273	      1.08702570	     -4.77017120	      1.31611991	      1.02791857	      0.32381394	     13.63712168	     -6.62887753	     -5.78879156	    -75.04150995	     -2.23755329	     -0.68729566	      6.52626226	      3.83782869	      3.14738859	     -5.21126660	    -13.02906126	     -2.47265649	    -18.94963384	     -2.77500841	    -17.51033086	     -4.21401512	      0.89670403
      1.69216667	      8.11977263	      0.88282881	     -4.54788426	      1.32084946	      1.02912681	      0.32320176	     14.14534924	     -6.35518558	     -6.01943673	    -74.74460862	     -1.78006819	     -0.62738876	      6.50713978	      3.26202869	      3.02429604	     -4.91444440	    -12.74123936	     -2.43464491	    -19.05398212	     -2.82572190	    -17.69924999	     -3.90167600	      0.76664620
      1.69633333	      8.16119877	      0.70614381	     -4.40154089	      1.32545884	      1.03010522	      0.32282826	     14.77895182	     -6.06965955	     -6.16262270	    -74.45897931	     -1.29202424	     -0.62658678	      6.50165160	      2.80609445	      2.89757045	     -4.74325737	    -12.51748201	     -2.38078677	    -19.11630108	     -2.84330374	    -17.81072821	     -3.65364211	      0.73572808
      1.70050000	      8.33199452	      0.48047489	     -4.10809273	      1.33018733	      1.03138149	      0.32203895	     15.16552983	     -5.82180326	     -6.48922559	    -74.02140996	     -0.85503494	     -0.48040258	      6.46590614	      2.16275496	      2.75993522	     -4.34613978	    -12.19794190	     -2.33782219	    -19.24036438	     -2.89510626	    -18.06044385	     -3.29941681	      0.58187013
      1.70466667	      8.45350048	      0.26615767	     -3.88184517	      1.33483846	      1.03250169	      0.32143791	     15.62501866	     -5.55490376	     -6.74838257	    -73.56721333	     -0.42764461	     -0.44840054	      6.42565787	      1.60194297	      2.60856414	     -4.05667417	    -11.93876323	     -2.28839145	    -19.34589808	     -2.94720065	    -18.25962207	     -2.98238593	      0.46607439
      1.70883333	      8.58938664	      0.07825660	     -3.64918409	      1.33949222	      1.03359351	      0.32084074	     16.05859690	     -5.32496030	     -7.01154173	    -73.08159050	      0.03331286	     -0.41584322	      6.36171692	      1.02158363	      2.48277573	     -3.75523255	    -11.65024708	     -2.25058966	    -19.45533819	     -3.01737922	    -18.47685886	     -2.69421050	      0.31487471
      1.71300000	      8.67137094	     -0.11226270	     -3.40901871	      1.34414146	      1.03456073	      0.32022880	     16.53770195	     -5.09840778	     -7.28865608	    -72.55087793	      0.46323637	     -0.37332559	      6.29191679	      0.51562055	      2.34324158	     -3.46558357	    -11.40431352	     -2.18078556	    -19.54332328	     -3.08486024	    -18.62637669	     -2.39265628	      0.21532813
      1.71716667	      8.75478255	     -0.29580052	     -3.23951322	      1.34880657	      1.03551018	      0.31976297	     17.01112630	     -4.85957557	     -7.49535092	    -71.97114046	      0.86273468	     -0.28091003	      6.23444681	     -0.01783661	      2.20320745	     -3.25421253	    -11.10038440	     -2.14344749	    -19.62801607	     -3.13558198	    -18.76445904	     -2.11523638	      0.15369531
      1.72133333	      8.85955786	     -0.46789594	     -3.00337237	      1.35338427	      1.03642438	      0.31916975	     17.44032007	     -4.66427814	     -7.77680678	    -71.35426352	      1.28699160	     -0.28576043	      6.14336959	     -0.54086474	      2.07686455	     -2.95714006	    -10.85148388	     -2.07380658	    -19.72906479	     -3.20049453	    -18.95041054	     -1.83884697	      0.04063960
      1.72550000	      8.95535362	     -0.64019821	     -2.79768429	      1.35802470	      1.03730983	      0.31863844	     17.85708737	     -4.46303597	     -8.02947629	    -70.68234717	      1.69924364	     -0.22734589	      6.04045473	     -1.07155410	      1.94291284	     -2.70359990	    -10.57028870	     -2.01873783	    -19.81251293	     -3.26829979	    -19.10898697	     -1.56283903	     -0.06230554
      1.72966667	      9.00863338	     -0.80046315	     -2.63637963	      1.36265696	      1.03807874	      0.31820936	     18.32025738	     -4.26020796	     -8.23787717	    -69.97327192	      2.06377056	     -0.14276739	      5.96268898	     -1.55556808	      1.81257414	     -2.50865014	    -10.29428413	     -1.95999109	    -19.88811691	     -3.31528272	    -19.21019368	     -1.30904989	     -0.09216179
      1.73383333	      9.00395611	     -0.90360443	     -2.52197906	      1.36720356	      1.03863543	      0.31795604	     18.87095634	     -4.08854680	     -8.37924536	    -69.28662799	      2.49585225	     -0.16861304	      5.93482386	     -1.94904642	      1.72840956	     -2.38811179	    -10.06706335	     -1.87749624	    -19.93046949	     -3.33054811	    -19.25770365	     -1.15366810	     -0.12073811
      1.73800000	      9.14679363	     -1.08263844	     -2.22317254	      1.37180512	      1.03951646	      0.31720015	     19.15070739	     -3.94480108	     -8.75238367	    -68.43547178	      2.80399491	     -0.10081241	      5.79818618	     -2.51897831	      1.58511666	     -2.00734420	     -9.78819684	     -1.80558596	    -20.03294725	     -3.39574077	    -19.48007161	     -0.82925909	     -0.27990594
      1.74216667	      9.11412129	     -1.17430736	     -2.13867832	      1.37637648	      1.03996890	      0.31701695	     19.69582931	     -3.78258307	     -8.86894868	    -67.64707570	      3.17071893	     -0.06794837	      5.76401723	     -2.88967939	      1.50556403	     -1.91678399	     -9.54447952	     -1.74012276	    -20.08206282	     -3.41183571	    -19.48344461	     -0.69344385	     -0.30506844
